<?xml version="1.0" encoding="UTF-8" standalone="no"?>
<!DOCTYPE svg PUBLIC "-//W3C//DTD SVG 1.1//EN" "http://www.w3.org/Graphics/SVG/1.1/DTD/svg11.dtd">
<svg width="100%" height="100%" viewBox="0 0 190 17" version="1.1" xmlns="http://www.w3.org/2000/svg" xmlns:xlink="http://www.w3.org/1999/xlink" xml:space="preserve" xmlns:serif="http://www.serif.com/" style="fill-rule:evenodd;clip-rule:evenodd;stroke-linejoin:round;stroke-miterlimit:2;">
    <g transform="matrix(1,0,0,1,-374,-206)">
        <g id="Artboard1" transform="matrix(1,0,0,1,477,129)">
            <rect x="-158" y="-129" width="300" height="300" style="fill:none;"/>
            <g transform="matrix(1.88679,5.55112e-17,-5.55112e-17,1.88679,-188.786,-519.86)">
                <g transform="matrix(7.95001,0,0,7.95001,45.6965,322.93)">
                    <path d="M0.301,-0.74C0.379,-0.74 0.437,-0.708 0.477,-0.645C0.517,-0.581 0.537,-0.487 0.537,-0.363C0.537,-0.238 0.517,-0.145 0.477,-0.081C0.437,-0.018 0.379,0.014 0.301,0.014C0.223,0.014 0.164,-0.018 0.125,-0.081C0.085,-0.145 0.065,-0.238 0.065,-0.363C0.065,-0.487 0.085,-0.581 0.125,-0.645C0.164,-0.708 0.223,-0.74 0.301,-0.74ZM0.301,-0.064C0.347,-0.064 0.381,-0.089 0.404,-0.138C0.427,-0.187 0.438,-0.262 0.438,-0.363C0.438,-0.417 0.435,-0.465 0.428,-0.508L0.196,-0.145C0.22,-0.091 0.255,-0.064 0.301,-0.064ZM0.301,-0.662C0.255,-0.662 0.221,-0.637 0.198,-0.588C0.175,-0.539 0.164,-0.464 0.164,-0.363C0.164,-0.317 0.167,-0.274 0.173,-0.234L0.401,-0.597C0.376,-0.64 0.343,-0.662 0.301,-0.662Z" style="fill:rgb(0,191,212);fill-rule:nonzero;"/>
                </g>
                <g transform="matrix(7.95001,0,0,7.95001,50.4828,322.93)">
                    <path d="M0.359,-0.639L0.129,-0.254L0.359,-0.254L0.359,-0.639ZM0.343,-0.729L0.457,-0.729L0.457,-0.254L0.554,-0.254L0.554,-0.174L0.457,-0.174L0.457,-0L0.359,-0L0.359,-0.174L0.05,-0.174L0.05,-0.267L0.343,-0.729Z" style="fill:rgb(0,191,212);fill-rule:nonzero;"/>
                </g>
                <g transform="matrix(7.95001,0,0,7.95001,60.0555,322.93)">
                    <path d="M0.3,-0.702L0.3,-0.547L0.504,-0.547L0.504,-0.477L0.3,-0.477L0.3,-0.18C0.3,-0.14 0.307,-0.112 0.323,-0.096C0.338,-0.08 0.365,-0.072 0.403,-0.072L0.504,-0.072L0.504,-0L0.394,-0C0.327,-0 0.279,-0.014 0.251,-0.041C0.224,-0.068 0.21,-0.114 0.21,-0.18L0.21,-0.477L0.064,-0.477L0.064,-0.547L0.21,-0.547L0.21,-0.702L0.3,-0.702Z" style="fill:rgb(0,191,212);fill-rule:nonzero;"/>
                </g>
                <g transform="matrix(7.95001,0,0,7.95001,64.8418,322.93)">
                    <path d="M0.513,-0.339L0.513,-0L0.423,-0L0.423,-0.339C0.423,-0.388 0.414,-0.424 0.397,-0.447C0.38,-0.47 0.353,-0.482 0.316,-0.482C0.274,-0.482 0.242,-0.467 0.219,-0.437C0.196,-0.407 0.185,-0.365 0.185,-0.309L0.185,-0L0.095,-0L0.095,-0.76L0.185,-0.76L0.185,-0.465C0.201,-0.496 0.223,-0.52 0.25,-0.536C0.277,-0.552 0.31,-0.56 0.347,-0.56C0.403,-0.56 0.444,-0.542 0.472,-0.505C0.499,-0.469 0.513,-0.413 0.513,-0.339Z" style="fill:rgb(0,191,212);fill-rule:nonzero;"/>
                </g>
                <g transform="matrix(7.95001,0,0,7.95001,69.6281,322.93)">
                    <path d="M0.546,-0.547L0.35,-0.285L0.565,-0L0.461,-0L0.301,-0.219L0.141,-0L0.037,-0L0.252,-0.285L0.056,-0.547L0.156,-0.547L0.301,-0.349L0.445,-0.547L0.546,-0.547Z" style="fill:rgb(0,191,212);fill-rule:nonzero;"/>
                </g>
                <g transform="matrix(7.95001,0,0,7.95001,74.4144,322.93)">
                    <rect x="0.19" y="-0.197" width="0.172" height="0.197" style="fill:rgb(0,191,212);fill-rule:nonzero;"/>
                </g>
                <g transform="matrix(7.95001,0,0,7.95001,79.2007,322.93)">
                    <path d="M0.3,-0.702L0.3,-0.547L0.504,-0.547L0.504,-0.477L0.3,-0.477L0.3,-0.18C0.3,-0.14 0.307,-0.112 0.323,-0.096C0.338,-0.08 0.365,-0.072 0.403,-0.072L0.504,-0.072L0.504,-0L0.394,-0C0.327,-0 0.279,-0.014 0.251,-0.041C0.224,-0.068 0.21,-0.114 0.21,-0.18L0.21,-0.477L0.064,-0.477L0.064,-0.547L0.21,-0.547L0.21,-0.702L0.3,-0.702Z" style="fill:rgb(0,191,212);fill-rule:nonzero;"/>
                </g>
                <g transform="matrix(7.95001,0,0,7.95001,83.987,322.93)">
                    <path d="M0.301,-0.484C0.255,-0.484 0.221,-0.466 0.197,-0.431C0.174,-0.395 0.162,-0.343 0.162,-0.273C0.162,-0.204 0.174,-0.151 0.197,-0.115C0.221,-0.08 0.255,-0.062 0.301,-0.062C0.347,-0.062 0.381,-0.08 0.405,-0.115C0.428,-0.151 0.44,-0.204 0.44,-0.273C0.44,-0.343 0.428,-0.395 0.405,-0.431C0.381,-0.466 0.347,-0.484 0.301,-0.484ZM0.301,-0.56C0.377,-0.56 0.435,-0.535 0.475,-0.486C0.515,-0.437 0.535,-0.366 0.535,-0.273C0.535,-0.18 0.515,-0.108 0.475,-0.059C0.435,-0.01 0.377,0.014 0.301,0.014C0.225,0.014 0.167,-0.01 0.127,-0.059C0.087,-0.108 0.067,-0.18 0.067,-0.273C0.067,-0.366 0.087,-0.437 0.127,-0.486C0.167,-0.535 0.225,-0.56 0.301,-0.56Z" style="fill:rgb(0,191,212);fill-rule:nonzero;"/>
                </g>
                <g transform="matrix(7.95001,0,0,7.95001,88.7733,322.93)">
                    <path d="M0.434,-0.729L0.527,-0.729L0.143,0.093L0.05,0.093L0.434,-0.729Z" style="fill:rgb(0,191,212);fill-rule:nonzero;"/>
                </g>
                <g transform="matrix(7.95001,0,0,7.95001,93.5596,322.93)">
                    <path d="M0.209,-0.546L0.362,-0.546L0.362,-0.37L0.209,-0.37L0.209,-0.546ZM0.209,-0.178L0.362,-0.178L0.362,-0L0.209,-0L0.209,-0.178Z" style="fill:rgb(0,191,212);fill-rule:nonzero;"/>
                </g>
                <g transform="matrix(7.95001,0,0,7.95001,98.3459,322.93)">
                    <path d="M0.351,-0.198C0.351,-0.157 0.358,-0.127 0.373,-0.106C0.388,-0.086 0.41,-0.076 0.439,-0.076L0.544,-0.076L0.544,-0L0.43,-0C0.376,-0 0.335,-0.017 0.305,-0.052C0.276,-0.086 0.261,-0.135 0.261,-0.198L0.261,-0.692L0.117,-0.692L0.117,-0.763L0.351,-0.763L0.351,-0.198Z" style="fill:rgb(0,191,212);fill-rule:nonzero;"/>
                </g>
                <g transform="matrix(7.95001,0,0,7.95001,103.132,322.93)">
                    <path d="M0.427,-0.275L0.313,-0.275C0.261,-0.275 0.221,-0.266 0.195,-0.247C0.168,-0.229 0.155,-0.201 0.155,-0.165C0.155,-0.132 0.165,-0.107 0.185,-0.088C0.204,-0.07 0.232,-0.061 0.267,-0.061C0.317,-0.061 0.355,-0.078 0.384,-0.113C0.412,-0.147 0.426,-0.194 0.427,-0.255L0.427,-0.275ZM0.517,-0.312L0.517,-0L0.427,-0L0.427,-0.081C0.408,-0.049 0.383,-0.024 0.354,-0.009C0.325,0.006 0.29,0.014 0.248,0.014C0.192,0.014 0.148,-0.002 0.115,-0.033C0.082,-0.064 0.065,-0.106 0.065,-0.159C0.065,-0.22 0.085,-0.266 0.126,-0.298C0.167,-0.329 0.227,-0.345 0.306,-0.345L0.427,-0.345L0.427,-0.359C0.426,-0.403 0.415,-0.435 0.394,-0.454C0.372,-0.474 0.337,-0.484 0.289,-0.484C0.258,-0.484 0.228,-0.479 0.196,-0.471C0.165,-0.462 0.135,-0.449 0.105,-0.432L0.105,-0.522C0.138,-0.535 0.17,-0.544 0.2,-0.551C0.231,-0.557 0.26,-0.56 0.289,-0.56C0.334,-0.56 0.373,-0.553 0.405,-0.54C0.437,-0.527 0.463,-0.507 0.483,-0.48C0.495,-0.464 0.504,-0.444 0.509,-0.42C0.514,-0.396 0.517,-0.36 0.517,-0.312Z" style="fill:rgb(0,191,212);fill-rule:nonzero;"/>
                </g>
                <g transform="matrix(7.95001,0,0,7.95001,107.919,322.93)">
                    <path d="M0.419,-0.176C0.404,-0.138 0.385,-0.088 0.362,-0.025C0.33,0.061 0.308,0.113 0.297,0.132C0.282,0.157 0.263,0.176 0.241,0.189C0.218,0.202 0.192,0.208 0.162,0.208L0.09,0.208L0.09,0.133L0.143,0.133C0.169,0.133 0.19,0.125 0.205,0.11C0.22,0.095 0.239,0.055 0.262,-0.009L0.051,-0.547L0.146,-0.547L0.308,-0.119L0.468,-0.547L0.563,-0.547L0.419,-0.176Z" style="fill:rgb(0,191,212);fill-rule:nonzero;"/>
                </g>
                <g transform="matrix(7.95001,0,0,7.95001,112.705,322.93)">
                    <path d="M0.527,-0.76L0.527,-0L0.437,-0L0.437,-0.685L0.291,-0.685C0.259,-0.685 0.236,-0.678 0.224,-0.665C0.211,-0.652 0.205,-0.629 0.205,-0.595L0.205,-0.546L0.348,-0.546L0.348,-0.477L0.205,-0.477L0.205,-0L0.115,-0L0.115,-0.477L0.017,-0.477L0.017,-0.547L0.115,-0.547L0.115,-0.585C0.115,-0.645 0.129,-0.689 0.156,-0.717C0.184,-0.746 0.227,-0.76 0.285,-0.76L0.527,-0.76Z" style="fill:rgb(0,191,212);fill-rule:nonzero;"/>
                </g>
                <g transform="matrix(7.95001,0,0,7.95001,117.491,322.93)">
                    <path d="M0.427,-0.275L0.313,-0.275C0.261,-0.275 0.221,-0.266 0.195,-0.247C0.168,-0.229 0.155,-0.201 0.155,-0.165C0.155,-0.132 0.165,-0.107 0.185,-0.088C0.204,-0.07 0.232,-0.061 0.267,-0.061C0.317,-0.061 0.355,-0.078 0.384,-0.113C0.412,-0.147 0.426,-0.194 0.427,-0.255L0.427,-0.275ZM0.517,-0.312L0.517,-0L0.427,-0L0.427,-0.081C0.408,-0.049 0.383,-0.024 0.354,-0.009C0.325,0.006 0.29,0.014 0.248,0.014C0.192,0.014 0.148,-0.002 0.115,-0.033C0.082,-0.064 0.065,-0.106 0.065,-0.159C0.065,-0.22 0.085,-0.266 0.126,-0.298C0.167,-0.329 0.227,-0.345 0.306,-0.345L0.427,-0.345L0.427,-0.359C0.426,-0.403 0.415,-0.435 0.394,-0.454C0.372,-0.474 0.337,-0.484 0.289,-0.484C0.258,-0.484 0.228,-0.479 0.196,-0.471C0.165,-0.462 0.135,-0.449 0.105,-0.432L0.105,-0.522C0.138,-0.535 0.17,-0.544 0.2,-0.551C0.231,-0.557 0.26,-0.56 0.289,-0.56C0.334,-0.56 0.373,-0.553 0.405,-0.54C0.437,-0.527 0.463,-0.507 0.483,-0.48C0.495,-0.464 0.504,-0.444 0.509,-0.42C0.514,-0.396 0.517,-0.36 0.517,-0.312Z" style="fill:rgb(0,191,212);fill-rule:nonzero;"/>
                </g>
                <g transform="matrix(7.95001,0,0,7.95001,122.277,322.93)">
                    <path d="M0.419,-0.278C0.419,-0.345 0.408,-0.396 0.386,-0.431C0.364,-0.466 0.332,-0.484 0.29,-0.484C0.246,-0.484 0.213,-0.466 0.189,-0.431C0.166,-0.396 0.155,-0.345 0.155,-0.278C0.155,-0.21 0.166,-0.159 0.19,-0.124C0.213,-0.088 0.247,-0.071 0.291,-0.071C0.332,-0.071 0.364,-0.089 0.386,-0.124C0.408,-0.16 0.419,-0.211 0.419,-0.278ZM0.509,-0.035C0.509,0.047 0.489,0.109 0.451,0.151C0.412,0.194 0.355,0.215 0.28,0.215C0.255,0.215 0.229,0.213 0.202,0.208C0.175,0.203 0.148,0.197 0.121,0.188L0.121,0.099C0.153,0.114 0.182,0.125 0.208,0.132C0.234,0.139 0.258,0.143 0.28,0.143C0.328,0.143 0.364,0.13 0.386,0.104C0.408,0.077 0.419,0.035 0.419,-0.022L0.419,-0.087C0.405,-0.056 0.385,-0.034 0.36,-0.019C0.336,-0.004 0.306,0.004 0.27,0.004C0.206,0.004 0.155,-0.022 0.117,-0.073C0.079,-0.124 0.06,-0.192 0.06,-0.278C0.06,-0.364 0.079,-0.432 0.117,-0.483C0.155,-0.535 0.206,-0.56 0.27,-0.56C0.305,-0.56 0.335,-0.553 0.359,-0.539C0.384,-0.525 0.404,-0.503 0.419,-0.474L0.419,-0.545L0.509,-0.545L0.509,-0.035Z" style="fill:rgb(0,191,212);fill-rule:nonzero;"/>
                </g>
                <g transform="matrix(7.95001,0,0,7.95001,127.064,322.93)">
                    <path d="M0.475,-0.528L0.475,-0.44C0.449,-0.455 0.424,-0.466 0.397,-0.474C0.371,-0.481 0.345,-0.485 0.318,-0.485C0.277,-0.485 0.247,-0.478 0.227,-0.465C0.207,-0.452 0.197,-0.432 0.197,-0.405C0.197,-0.38 0.204,-0.362 0.219,-0.35C0.234,-0.338 0.271,-0.326 0.331,-0.315L0.367,-0.308C0.412,-0.3 0.446,-0.283 0.469,-0.257C0.491,-0.232 0.503,-0.199 0.503,-0.158C0.503,-0.104 0.484,-0.062 0.445,-0.031C0.407,-0.001 0.354,0.014 0.285,0.014C0.258,0.014 0.23,0.011 0.2,0.006C0.171,-0 0.139,-0.009 0.104,-0.02L0.104,-0.113C0.138,-0.096 0.17,-0.083 0.2,-0.074C0.231,-0.065 0.26,-0.061 0.287,-0.061C0.327,-0.061 0.358,-0.069 0.379,-0.085C0.401,-0.101 0.412,-0.124 0.412,-0.153C0.412,-0.194 0.372,-0.223 0.292,-0.239L0.289,-0.24L0.255,-0.247C0.203,-0.257 0.165,-0.274 0.142,-0.298C0.118,-0.322 0.106,-0.355 0.106,-0.396C0.106,-0.448 0.124,-0.489 0.159,-0.517C0.195,-0.546 0.245,-0.56 0.311,-0.56C0.34,-0.56 0.368,-0.557 0.396,-0.552C0.423,-0.547 0.449,-0.539 0.475,-0.528Z" style="fill:rgb(0,191,212);fill-rule:nonzero;"/>
                </g>
            </g>
        </g>
    </g>
</svg>
