<svg clip-rule="evenodd" fill-rule="evenodd" stroke-linejoin="round" stroke-miterlimit="1.414" viewBox="0 0 190 17" xmlns="http://www.w3.org/2000/svg"><g fill="#00bfd4" fill-rule="nonzero"><path d="M4.946 1.345c1.167 0 2.05.476 2.648 1.428s.897 2.361.897 4.226-.299 3.274-.897 4.226-1.481 1.429-2.648 1.429-2.048-.477-2.644-1.429-.894-2.361-.894-4.226.298-3.274.894-4.226 1.477-1.428 2.644-1.428zm0 10.137c.693 0 1.21-.369 1.549-1.106.339-.738.509-1.863.509-3.377 0-.805-.049-1.533-.146-2.182l-3.487 5.456c.366.806.891 1.209 1.575 1.209zm0-8.965c-.689 0-1.202.368-1.542 1.106-.339.737-.509 1.863-.509 3.376 0 .689.047 1.333.139 1.934l3.413-5.442c-.371-.649-.871-.974-1.501-.974zM15.149 6.589c.717.191 1.267.529 1.648 1.014.38.486.571 1.093.571 1.821 0 1.005-.338 1.795-1.015 2.369-.676.574-1.612.861-2.808.861a8.782 8.782 0 0 1-1.539-.14 9.913 9.913 0 0 1-1.538-.402v-1.473c.498.259.989.452 1.473.579.483.127.964.19 1.442.19.811 0 1.434-.183 1.868-.549.435-.366.652-.893.652-1.582 0-.635-.217-1.139-.652-1.512-.434-.374-1.023-.561-1.765-.561h-1.128V5.989h1.128c.679 0 1.208-.149 1.589-.447s.572-.713.572-1.245c0-.562-.177-.993-.531-1.293s-.859-.451-1.513-.451c-.434 0-.884.049-1.347.147a9.64 9.64 0 0 0-1.458.439V1.777a18.109 18.109 0 0 1 1.578-.351 7.373 7.373 0 0 1 1.227-.118c1.065 0 1.915.268 2.553.802.637.535.955 1.244.955 2.128 0 .601-.167 1.101-.501 1.501-.335.401-.822.684-1.461.85zM35.224 7.358v5.083h-1.355V7.358c0-.737-.129-1.279-.388-1.626s-.664-.52-1.216-.52c-.63 0-1.114.224-1.454.67-.339.447-.509 1.088-.509 1.923v4.636h-1.347V4.238h1.347v1.23c.24-.468.564-.823.974-1.065.411-.242.896-.363 1.458-.363.835 0 1.459.275 1.871.824.413.55.619 1.381.619 2.494zM39.304 11.408v4.153h-1.355V4.238h1.355v1.047a2.34 2.34 0 0 1 .897-.926c.374-.213.804-.319 1.293-.319.991 0 1.769.384 2.333 1.15.563.767.845 1.829.845 3.186 0 1.333-.283 2.379-.849 3.139-.567.759-1.343 1.139-2.329 1.139-.498 0-.934-.107-1.308-.319a2.245 2.245 0 0 1-.882-.927zm3.955-3.061c0-1.045-.165-1.834-.494-2.366-.33-.532-.82-.798-1.469-.798-.654 0-1.15.267-1.487.802s-.505 1.322-.505 2.362c0 1.035.168 1.821.505 2.358s.833.806 1.487.806c.649 0 1.139-.266 1.469-.798.329-.533.494-1.321.494-2.366zM50.539 5.073c.166-.352.377-.612.634-.78.256-.169.565-.253.926-.253.659 0 1.124.255 1.395.766.271.51.407 1.471.407 2.882v4.753h-1.23V7.746c0-1.157-.065-1.876-.195-2.157-.129-.28-.365-.421-.706-.421-.391 0-.658.15-.802.451-.144.3-.216 1.009-.216 2.127v4.695h-1.231V7.746c0-1.172-.069-1.894-.209-2.168-.139-.273-.389-.41-.75-.41-.357 0-.605.15-.744.451-.139.3-.209 1.009-.209 2.127v4.695h-1.223V4.238h1.223v.703c.162-.293.363-.516.605-.67.241-.154.516-.231.824-.231.371 0 .68.086.926.257.247.171.438.429.575.776zM59.013 12.588V5.285h-2.322V4.238h3.67v8.35c0 .952-.219 1.685-.656 2.201-.437.515-1.058.772-1.864.772h-1.86v-1.142h1.714c.439 0 .769-.153.989-.458.219-.305.329-.763.329-1.373zm0-11.543h1.348v1.706h-1.348zM70.776 4.524v1.318a5.103 5.103 0 0 0-1.165-.505 4.267 4.267 0 0 0-1.193-.169c-.611 0-1.066.099-1.366.297-.301.198-.451.499-.451.904 0 .367.112.64.337.821.225.18.784.356 1.677.527l.542.103c.669.127 1.176.38 1.52.761s.516.877.516 1.487c0 .811-.288 1.444-.864 1.901-.576.456-1.377.685-2.402.685-.405 0-.83-.043-1.275-.129a11.528 11.528 0 0 1-1.442-.384v-1.392c.502.259.983.453 1.442.583.459.129.894.194 1.304.194.596 0 1.057-.121 1.384-.363.328-.242.491-.58.491-1.014 0-.625-.598-1.057-1.794-1.297l-.059-.014-.505-.103c-.777-.151-1.343-.406-1.699-.765-.357-.359-.535-.849-.535-1.469 0-.786.266-1.393.798-1.82s1.292-.641 2.278-.641c.439 0 .862.041 1.267.121.405.081.803.202 1.194.363zM75.529 9.482h2.578v2.959h-2.578zM89.482 12.024c-.361.21-.734.367-1.117.472s-.775.158-1.175.158c-1.27 0-2.262-.381-2.978-1.143-.715-.762-1.073-1.816-1.073-3.164s.358-2.402 1.073-3.164c.716-.762 1.708-1.143 2.978-1.143.395 0 .781.052 1.157.154.376.103.754.261 1.135.476v1.414a3.638 3.638 0 0 0-1.073-.689 3.312 3.312 0 0 0-1.219-.212c-.845 0-1.495.273-1.949.82s-.681 1.328-.681 2.344c0 1.011.228 1.791.685 2.34.456.549 1.105.824 1.945.824.468 0 .888-.072 1.259-.216s.716-.368 1.033-.67zM95.253 5.183c-.683 0-1.201.266-1.552.798-.352.532-.528 1.321-.528 2.366 0 1.04.176 1.827.528 2.362.351.535.869.802 1.552.802.689 0 1.209-.267 1.561-.802.351-.535.527-1.322.527-2.362 0-1.045-.176-1.834-.527-2.366-.352-.532-.872-.798-1.561-.798zm0-1.143c1.138 0 2.009.369 2.612 1.106.603.738.904 1.804.904 3.201 0 1.401-.3 2.469-.901 3.204-.6.735-1.472 1.103-2.615 1.103-1.137 0-2.006-.368-2.607-1.103s-.901-1.803-.901-3.204c0-1.397.3-2.463.901-3.201.601-.737 1.47-1.106 2.607-1.106zM104.724 5.073c.166-.352.377-.612.633-.78.257-.169.565-.253.927-.253.659 0 1.124.255 1.395.766.271.51.406 1.471.406 2.882v4.753h-1.23V7.746c0-1.157-.065-1.876-.194-2.157-.129-.28-.365-.421-.707-.421-.39 0-.658.15-.802.451-.144.3-.216 1.009-.216 2.127v4.695h-1.23V7.746c0-1.172-.07-1.894-.209-2.168-.139-.273-.39-.41-.751-.41-.356 0-.604.15-.743.451-.139.3-.209 1.009-.209 2.127v4.695h-1.223V4.238h1.223v.703c.161-.293.363-.516.604-.67.242-.154.517-.231.824-.231.371 0 .68.086.927.257.246.171.438.429.575.776zM115.314 1.506h1.392l-5.757 12.327h-1.399zM125.795 6.699l.953.644c-.42.958-.833 1.611-1.238 1.96-.406.349-.823.523-1.253.523-.683-.039-1.3-.394-1.849-1.065-.549-.672-.936-1.148-1.161-1.429a1.047 1.047 0 0 0-.872-.413c-.375 0-.661.177-.856.531-.196.354-.401.804-.616 1.351l-.974-.557c.283-.903.65-1.569 1.099-1.999s.901-.645 1.355-.645c.825-.009 1.564.479 2.215 1.465.652.986 1.205 1.48 1.659 1.48.386 0 .701-.212.945-.634s.442-.826.593-1.212zM132.131 9.475c0 .605.111 1.062.333 1.369.222.308.551.462.985.462h1.575v1.135h-1.707c-.805 0-1.429-.257-1.871-.773-.442-.515-.663-1.246-.663-2.193v-7.42h-2.16V1.001h3.508zM141.037 8.318h-.447c-.786 0-1.378.138-1.776.413-.398.276-.597.688-.597 1.235 0 .493.149.876.447 1.149.298.274.71.411 1.238.411.742 0 1.326-.258 1.75-.773.425-.515.64-1.227.645-2.135v-.3zm2.615-.557v4.68h-1.355v-1.216c-.288.489-.651.849-1.088 1.081s-.968.348-1.593.348c-.835 0-1.501-.236-1.999-.707s-.747-1.103-.747-1.894c0-.913.306-1.606.919-2.08.613-.473 1.512-.71 2.699-.71h1.809v-.212c-.005-.655-.171-1.13-.498-1.425s-.85-.443-1.568-.443c-.459 0-.922.066-1.391.198a6.03 6.03 0 0 0-1.37.578V4.612a9.326 9.326 0 0 1 1.432-.429c.457-.095.9-.143 1.329-.143.679 0 1.259.1 1.74.301.481.2.87.5 1.168.9.186.245.318.546.396.905s.117.897.117 1.615zM151.21 9.804c-.224.572-.51 1.324-.857 2.256-.483 1.289-.808 2.075-.974 2.359a2.288 2.288 0 0 1-.842.857c-.337.19-.73.285-1.179.285h-1.084v-1.128h.798c.396 0 .706-.114.93-.344.225-.229.511-.823.857-1.78l-3.171-8.071h1.428l2.432 6.416 2.395-6.416h1.428zM161.86 1.045v11.396h-1.348V2.165h-2.19c-.483 0-.819.099-1.007.297s-.282.548-.282 1.051v.74h2.146v1.032h-2.146v7.156h-1.347V5.285h-1.473V4.238h1.473v-.571c0-.899.206-1.56.618-1.985.413-.425 1.056-.637 1.93-.637h3.626zM168.129 8.318h-.446c-.787 0-1.379.138-1.777.413-.398.276-.596.688-.596 1.235 0 .493.148.876.446 1.149.298.274.711.411 1.238.411.742 0 1.326-.258 1.751-.773.424-.515.639-1.227.644-2.135v-.3zm2.615-.557v4.68h-1.355v-1.216c-.288.489-.651.849-1.088 1.081s-.968.348-1.593.348c-.835 0-1.501-.236-1.999-.707s-.747-1.103-.747-1.894c0-.913.306-1.606.919-2.08.613-.473 1.512-.71 2.699-.71h1.809v-.212c-.005-.655-.171-1.13-.498-1.425s-.85-.443-1.567-.443a5.12 5.12 0 0 0-1.392.198 6.03 6.03 0 0 0-1.37.578V4.612a9.326 9.326 0 0 1 1.432-.429c.457-.095.9-.143 1.33-.143.678 0 1.258.1 1.739.301.481.2.871.5 1.168.9.186.245.318.546.396.905s.117.897.117 1.615zM178.303 8.274c0-1.011-.165-1.779-.495-2.304-.329-.525-.809-.787-1.439-.787-.659 0-1.162.262-1.509.787-.346.525-.52 1.293-.52 2.304 0 1.01.175 1.781.524 2.31.349.53.856.795 1.52.795.62 0 1.095-.266 1.424-.798.33-.532.495-1.301.495-2.307zm1.347 3.64c0 1.23-.29 2.163-.871 2.798-.581.634-1.436.952-2.564.952-.371 0-.759-.034-1.164-.103a8.394 8.394 0 0 1-1.216-.3v-1.333a8.18 8.18 0 0 0 1.304.498c.39.107.749.161 1.076.161.728 0 1.258-.198 1.59-.593.332-.396.498-1.023.498-1.882V11.137c-.215.459-.508.801-.879 1.026-.371.224-.823.337-1.355.337-.957 0-1.721-.384-2.293-1.15-.571-.767-.857-1.792-.857-3.076 0-1.289.286-2.317.857-3.084.572-.766 1.336-1.15 2.293-1.15.527 0 .974.105 1.34.315s.664.535.894.974V4.267h1.347zM188.176 4.524v1.318a5.103 5.103 0 0 0-1.165-.505 4.269 4.269 0 0 0-1.194-.169c-.61 0-1.065.099-1.366.297-.3.198-.45.499-.45.904 0 .367.112.64.337.821.224.18.784.356 1.677.527l.542.103c.669.127 1.176.38 1.52.761s.516.877.516 1.487c0 .811-.288 1.444-.864 1.901-.576.456-1.377.685-2.402.685-.406 0-.83-.043-1.275-.129a11.585 11.585 0 0 1-1.443-.384v-1.392c.503.259.984.453 1.443.583.459.129.894.194 1.304.194.596 0 1.057-.121 1.384-.363s.491-.58.491-1.014c0-.625-.598-1.057-1.795-1.297l-.058-.014-.506-.103c-.776-.151-1.342-.406-1.699-.765-.356-.359-.534-.849-.534-1.469 0-.786.266-1.393.798-1.82s1.291-.641 2.278-.641c.439 0 .862.041 1.267.121.405.081.803.202 1.194.363z"/></g></svg>