<svg clip-rule="evenodd" fill-rule="evenodd" stroke-linejoin="round" stroke-miterlimit="1.414" viewBox="0 0 67 20" xmlns="http://www.w3.org/2000/svg"><path d="m11.057 17.366a7.755 7.755 0 0 1 -1.747.68 7.719 7.719 0 0 1 -1.901.227c-2.115 0-3.757-.748-4.925-2.245-1.168-1.496-1.752-3.6-1.752-6.312 0-2.698.587-4.8 1.763-6.307s2.814-2.261 4.914-2.261c.671 0 1.305.076 1.901.227.597.151 1.18.377 1.747.68v2.288a6.178 6.178 0 0 0 -1.758-1.028 5.322 5.322 0 0 0 -1.89-.354c-1.452 0-2.539.56-3.261 1.681-.723 1.12-1.084 2.811-1.084 5.074 0 2.255.361 3.943 1.084 5.063.722 1.12 1.809 1.681 3.261 1.681.649 0 1.284-.118 1.907-.354s1.203-.579 1.741-1.028zm8.579-16.163c1.761 0 3.094.719 3.996 2.156.903 1.437 1.355 3.564 1.355 6.379s-.452 4.942-1.355 6.379c-.902 1.437-2.235 2.156-3.996 2.156s-3.092-.719-3.991-2.156-1.349-3.564-1.349-6.379.45-4.942 1.349-6.379 2.23-2.156 3.991-2.156zm0 15.301c1.047 0 1.826-.557 2.338-1.67.512-1.112.769-2.811.769-5.096a22.19 22.19 0 0 0 -.222-3.294l-5.262 8.236c.553 1.216 1.345 1.824 2.377 1.824zm0-13.532c-1.039 0-1.815.557-2.327 1.67-.512 1.112-.768 2.811-.768 5.096 0 1.039.07 2.012.21 2.919l5.151-8.214c-.56-.981-1.315-1.471-2.266-1.471zm11.641 13.145c1.88 0 3.191-.463 3.936-1.388.744-.925 1.116-2.596 1.116-5.013 0-2.44-.37-4.122-1.111-5.047-.74-.925-2.054-1.387-3.941-1.387h-1.061v12.835zm.044-14.67c2.521 0 4.378.67 5.572 2.012 1.194 1.341 1.791 3.427 1.791 6.257 0 2.815-.597 4.892-1.791 6.229-1.194 1.338-3.051 2.007-5.572 2.007h-3.349v-16.505zm17.346 7.672c1.083.287 1.912.798 2.487 1.531s.863 1.649.863 2.747c0 1.519-.511 2.711-1.532 3.577-1.02.866-2.433 1.299-4.239 1.299-.759 0-1.533-.07-2.322-.21a14.984 14.984 0 0 1 -2.321-.608v-2.223a10.73 10.73 0 0 0 2.222.874 8.565 8.565 0 0 0 2.178.287c1.223 0 2.163-.276 2.819-.829s.984-1.349.984-2.388c0-.958-.328-1.719-.984-2.283s-1.544-.845-2.665-.845h-1.702v-1.836h1.702c1.025 0 1.824-.224 2.399-.674s.863-1.076.863-1.879c0-.848-.268-1.498-.802-1.952-.534-.453-1.295-.679-2.283-.679-.656 0-1.334.073-2.034.221-.7.147-1.433.368-2.2.663v-2.056a27.2 27.2 0 0 1 2.383-.531 11.22 11.22 0 0 1 1.851-.177c1.607 0 2.891.404 3.853 1.211s1.443 1.877 1.443 3.211c0 .907-.253 1.662-.758 2.267-.504.604-1.24 1.031-2.205 1.282zm7.341-7.672h8.357v1.879h-6.323v4.057a5.385 5.385 0 0 1 1.923-.342c1.71 0 3.066.504 4.069 1.514 1.002 1.01 1.503 2.377 1.503 4.102 0 1.739-.525 3.11-1.575 4.112s-2.486 1.504-4.306 1.504c-.877 0-1.679-.059-2.405-.177s-1.376-.295-1.951-.531v-2.266a9.18 9.18 0 0 0 2.045.823 8.199 8.199 0 0 0 2.101.271c1.231 0 2.179-.324 2.846-.973.667-.648 1.001-1.569 1.001-2.763 0-1.18-.345-2.097-1.034-2.753s-1.649-.984-2.88-.984a7.46 7.46 0 0 0 -1.746.204 6.92 6.92 0 0 0 -1.625.614z" fill-rule="nonzero"/></svg>