<svg viewBox="0 0 190 17" xmlns="http://www.w3.org/2000/svg" fill-rule="evenodd" clip-rule="evenodd" stroke-linejoin="round" stroke-miterlimit="2"><path fill="none" d="M-55-236h300V64H-55z"/><path d="M4.949 1.341c1.17 0 2.04.48 2.64 1.425.6.96.9 2.37.9 4.23 0 1.875-.3 3.27-.9 4.23-.6.945-1.47 1.425-2.64 1.425-1.17 0-2.055-.48-2.64-1.425-.6-.96-.9-2.355-.9-4.23 0-1.86.3-3.27.9-4.23.585-.945 1.47-1.425 2.64-1.425zm0 10.14c.69 0 1.2-.375 1.545-1.11.345-.735.51-1.86.51-3.375 0-.81-.045-1.53-.15-2.175l-3.48 5.445c.36.81.885 1.215 1.575 1.215zm0-8.97c-.69 0-1.2.375-1.545 1.11-.345.735-.51 1.86-.51 3.375 0 .69.045 1.335.135 1.935l3.42-5.445c-.375-.645-.87-.975-1.5-.975zM10.98 1.506h5.534v1.245H12.33v2.685c.21-.075.42-.135.63-.165.21-.045.435-.06.645-.06 1.125 0 2.025.33 2.7 1.005.66.675.99 1.575.99 2.715 0 1.155-.345 2.055-1.05 2.73-.69.66-1.635.99-2.85.99-.585 0-1.11-.03-1.59-.12a5.975 5.975 0 01-1.29-.345v-1.5c.45.24.9.42 1.35.54.45.12.915.18 1.395.18.81 0 1.44-.21 1.89-.645.435-.42.66-1.035.66-1.83 0-.78-.225-1.38-.69-1.815-.45-.435-1.095-.66-1.905-.66-.39 0-.78.045-1.155.135-.375.09-.735.225-1.08.405v-5.49zM32.026 1.911v2.325h3.06v1.05h-3.06v4.455c0 .6.105 1.02.345 1.26.225.24.63.36 1.2.36h1.515v1.08h-1.65c-1.005 0-1.725-.21-2.145-.615-.405-.405-.615-1.095-.615-2.085V5.286h-2.19v-1.05h2.19V1.911h1.35zM44.252 7.356v5.085h-1.35V7.356c0-.735-.135-1.275-.39-1.62-.255-.345-.66-.525-1.215-.525-.63 0-1.11.225-1.455.675-.345.45-.51 1.08-.51 1.92v4.635h-1.35v-11.4h1.35v4.425c.24-.465.57-.825.975-1.065s.9-.36 1.455-.36c.84 0 1.455.27 1.875.825.405.54.615 1.38.615 2.49zM53.778 4.236l-2.94 3.93 3.225 4.275h-1.56l-2.4-3.285-2.4 3.285h-1.56l3.225-4.275-2.94-3.93h1.5l2.175 2.97 2.16-2.97h1.515zM57.468 9.486h2.58v2.955h-2.58zM68.15 1.911v2.325h3.06v1.05h-3.06v4.455c0 .6.104 1.02.344 1.26.225.24.63.36 1.2.36h1.515v1.08h-1.65c-1.005 0-1.725-.21-2.145-.615-.405-.405-.615-1.095-.615-2.085V5.286h-2.19v-1.05h2.19V1.911h1.35zM77.195 5.181c-.69 0-1.2.27-1.56.795-.345.54-.525 1.32-.525 2.37 0 1.035.18 1.83.525 2.37.36.525.87.795 1.56.795.69 0 1.2-.27 1.56-.795.345-.54.525-1.335.525-2.37 0-1.05-.18-1.83-.525-2.37-.36-.525-.87-.795-1.56-.795zm0-1.14c1.14 0 2.01.375 2.61 1.11.6.735.9 1.8.9 3.195 0 1.395-.3 2.475-.9 3.21-.6.735-1.47 1.095-2.61 1.095s-2.01-.36-2.61-1.095c-.6-.735-.9-1.815-.9-3.21s.3-2.46.9-3.195c.6-.735 1.47-1.11 2.61-1.11zM88.22 1.506h1.396l-5.76 12.33H82.46l5.76-12.33zM93.876 4.251h2.295v2.64h-2.295v-2.64zm0 5.52h2.295v2.67h-2.295v-2.67zM105.037 9.471c0 .615.105 1.065.33 1.38.225.3.555.45.99.45h1.575v1.14h-1.71c-.81 0-1.425-.255-1.875-.78-.435-.51-.66-1.245-.66-2.19v-7.41h-2.16V.996h3.51v8.475zM115.207 8.316h-1.71c-.78 0-1.38.135-1.77.42-.405.27-.6.69-.6 1.23 0 .495.15.87.45 1.155.285.27.705.405 1.23.405.75 0 1.32-.255 1.755-.78.42-.51.63-1.215.645-2.13v-.3zm1.35-.555v4.68h-1.35v-1.215c-.285.48-.66.855-1.095 1.08-.435.225-.96.345-1.59.345-.84 0-1.5-.24-1.995-.705-.495-.465-.75-1.095-.75-1.89 0-.915.3-1.605.915-2.085.615-.465 1.515-.705 2.7-.705h1.815v-.21c-.015-.66-.18-1.14-.495-1.425-.33-.3-.855-.45-1.575-.45-.465 0-.915.075-1.395.195-.465.135-.915.33-1.365.585v-1.35c.495-.195.975-.33 1.425-.435.465-.09.9-.135 1.335-.135.675 0 1.26.105 1.74.3s.87.495 1.17.9c.18.24.315.54.39.9.075.36.12.9.12 1.62zM124.12 9.801c-.226.57-.51 1.32-.856 2.265-.48 1.29-.81 2.07-.975 2.355-.225.375-.51.66-.84.855-.345.195-.735.285-1.185.285h-1.08v-1.125h.795c.39 0 .705-.12.93-.345.225-.225.51-.825.855-1.785l-3.165-8.07h1.425l2.43 6.42 2.4-6.42h1.425l-2.16 5.565zM134.77 1.041v11.4h-1.35V2.166h-2.19c-.48 0-.825.105-1.005.3-.195.195-.285.54-.285 1.05v.735h2.145v1.035h-2.145v7.155h-1.35V5.286h-1.47v-1.05h1.47v-.57c0-.9.21-1.56.615-1.98.42-.435 1.065-.645 1.935-.645h3.63zM142.3 8.316h-1.71c-.78 0-1.38.135-1.77.42-.405.27-.6.69-.6 1.23 0 .495.15.87.45 1.155.285.27.705.405 1.23.405.75 0 1.32-.255 1.755-.78.42-.51.63-1.215.645-2.13v-.3zm1.35-.555v4.68h-1.35v-1.215c-.285.48-.66.855-1.095 1.08-.435.225-.96.345-1.59.345-.84 0-1.5-.24-1.995-.705-.495-.465-.75-1.095-.75-1.89 0-.915.3-1.605.915-2.085.615-.465 1.515-.705 2.7-.705h1.815v-.21c-.015-.66-.18-1.14-.495-1.425-.33-.3-.855-.45-1.575-.45-.465 0-.915.075-1.395.195-.465.135-.915.33-1.365.585v-1.35c.495-.195.975-.33 1.425-.435.465-.09.9-.135 1.335-.135.675 0 1.26.105 1.74.3s.87.495 1.17.9c.18.24.315.54.39.9.075.36.12.9.12 1.62zM151.21 8.271c0-1.005-.165-1.77-.495-2.295-.33-.525-.81-.795-1.44-.795-.66 0-1.155.27-1.515.795-.345.525-.51 1.29-.51 2.295 0 1.02.165 1.785.525 2.31.345.54.855.795 1.515.795.615 0 1.095-.27 1.425-.795.33-.54.495-1.305.495-2.31zm1.35 3.645c0 1.23-.3 2.16-.87 2.79-.585.645-1.44.96-2.565.96-.375 0-.765-.03-1.17-.105a8.973 8.973 0 01-1.215-.3v-1.335c.48.225.915.39 1.305.495.39.105.75.165 1.08.165.72 0 1.26-.195 1.59-.585.33-.405.495-1.035.495-1.89v-.975c-.21.465-.51.795-.885 1.02-.36.225-.81.345-1.35.345-.96 0-1.725-.39-2.295-1.155-.57-.765-.855-1.785-.855-3.075 0-1.29.285-2.31.855-3.075.57-.78 1.335-1.155 2.295-1.155.525 0 .975.105 1.335.315.375.21.675.54.9.975V4.266h1.35v7.65zM161.082 4.521v1.32a5.328 5.328 0 00-1.17-.51 4.519 4.519 0 00-1.185-.165c-.615 0-1.065.105-1.365.3-.3.195-.45.495-.45.9 0 .375.105.645.33.825.225.18.78.36 1.68.525l.54.105c.675.12 1.185.375 1.53.765.33.375.51.87.51 1.485 0 .81-.285 1.44-.87 1.905-.57.45-1.365.675-2.4.675-.405 0-.825-.045-1.275-.12-.435-.09-.915-.225-1.44-.39v-1.395c.51.255.99.45 1.44.585.465.135.9.195 1.305.195.6 0 1.065-.12 1.38-.36.33-.24.495-.585.495-1.02 0-.615-.6-1.05-1.8-1.29l-.045-.015-.51-.105c-.78-.15-1.35-.405-1.695-.765-.36-.36-.54-.855-.54-1.47 0-.78.27-1.395.795-1.815.54-.435 1.29-.645 2.28-.645a7.2 7.2 0 011.275.12c.405.075.795.195 1.185.36z" fill="#00bfd4" fill-rule="nonzero"/></svg>
