<svg clip-rule="evenodd" fill-rule="evenodd" stroke-linejoin="round" stroke-miterlimit="1.414" viewBox="0 0 190 17" xmlns="http://www.w3.org/2000/svg"><g fill="#00bfd4" fill-rule="nonzero"><path d="M4.946 1.345c1.167 0 2.05.476 2.648 1.428s.897 2.361.897 4.226c0 1.866-.299 3.274-.897 4.226-.598.953-1.481 1.429-2.648 1.429s-2.048-.476-2.644-1.429c-.596-.952-.894-2.36-.894-4.226 0-1.865.298-3.274.894-4.226s1.477-1.428 2.644-1.428zm0 10.137c.693 0 1.21-.369 1.549-1.106.339-.738.509-1.863.509-3.377 0-.805-.049-1.533-.146-2.182l-3.487 5.456c.366.806.891 1.209 1.575 1.209zm0-8.965c-.689 0-1.202.369-1.542 1.106-.339.737-.509 1.863-.509 3.376 0 .689.047 1.333.139 1.934l3.413-5.442c-.371-.649-.871-.974-1.501-.974zM11.443 11.203h2.299V2.942l-2.754 1.325V2.846l2.74-1.303h1.479v9.66h2.271v1.238h-6.035zM33.811 8.274c0-1.011-.165-1.779-.495-2.304-.329-.525-.809-.787-1.439-.787-.659 0-1.162.262-1.509.787-.346.525-.52 1.293-.52 2.304 0 1.01.175 1.781.524 2.311.349.529.856.794 1.52.794.62 0 1.095-.266 1.424-.798.33-.532.495-1.301.495-2.307zm1.347 3.64c0 1.23-.29 2.163-.871 2.798-.581.634-1.436.952-2.564.952-.371 0-.759-.034-1.164-.103a8.394 8.394 0 0 1-1.216-.3v-1.333a8.18 8.18 0 0 0 1.304.498c.39.107.749.161 1.076.161.728 0 1.258-.198 1.59-.593.332-.396.498-1.023.498-1.882v-.974c-.215.458-.508.8-.879 1.025s-.823.337-1.355.337c-.957 0-1.721-.383-2.293-1.15-.571-.767-.857-1.792-.857-3.076 0-1.289.286-2.317.857-3.084.572-.766 1.336-1.15 2.293-1.15.527 0 .974.105 1.34.315s.664.535.894.974V4.267h1.347zM38.872 4.267h3.449v7.127h2.674v1.047H38.3v-1.047h2.674V5.315h-2.102zm2.102-3.186h1.347v1.7h-1.347zM50.085 1.909v2.329h3.062v1.047h-3.062v4.454c0 .605.115 1.027.344 1.267.23.239.63.359 1.201.359h1.517v1.076h-1.648c-1.011 0-1.724-.202-2.139-.608-.415-.405-.623-1.103-.623-2.094V5.285h-2.19V4.238h2.19V1.909h1.348zM62.316 7.358v5.083h-1.354V7.358c0-.737-.13-1.279-.389-1.626-.258-.346-.664-.52-1.215-.52-.63 0-1.115.224-1.454.67-.34.447-.509 1.088-.509 1.923v4.636h-1.348V1.045h1.348v4.424c.239-.469.564-.824.974-1.066s.896-.363 1.457-.363c.835 0 1.459.275 1.872.824.412.55.618 1.381.618 2.494zM65.078 9.336V4.253h1.347v5.083c0 .737.131 1.279.392 1.626.261.346.665.52 1.212.52.635 0 1.121-.224 1.458-.67.337-.447.505-1.088.505-1.923V4.253h1.355v8.188h-1.355v-1.23c-.239.473-.565.832-.978 1.076-.412.245-.894.367-1.446.367-.84 0-1.465-.275-1.875-.824-.41-.55-.615-1.381-.615-2.494zM79.404 8.347c0-1.045-.166-1.834-.498-2.366s-.823-.798-1.472-.798c-.655 0-1.15.267-1.487.802s-.506 1.322-.506 2.362c0 1.035.169 1.821.506 2.358s.832.806 1.487.806c.649 0 1.14-.266 1.472-.798.332-.533.498-1.321.498-2.366zm-3.963-3.062c.215-.4.512-.708.89-.922.379-.215.817-.323 1.315-.323.986 0 1.763.38 2.329 1.139.567.76.85 1.806.85 3.139 0 1.352-.285 2.413-.854 3.182-.568.769-1.348 1.154-2.34 1.154a2.57 2.57 0 0 1-1.292-.319 2.339 2.339 0 0 1-.898-.927v1.033h-1.347V1.045h1.347zM84.56 9.482h2.578v2.959H84.56zM98.513 12.024c-.362.21-.734.367-1.117.472a4.434 4.434 0 0 1-1.176.158c-1.269 0-2.262-.381-2.977-1.143S92.17 9.695 92.17 8.347s.358-2.402 1.073-3.164S94.951 4.04 96.22 4.04c.396 0 .781.052 1.157.154.376.103.755.261 1.136.476v1.414a3.65 3.65 0 0 0-1.073-.689 3.317 3.317 0 0 0-1.22-.212c-.844 0-1.494.273-1.948.82s-.681 1.328-.681 2.344c0 1.011.228 1.791.685 2.34.456.549 1.104.824 1.944.824.469 0 .889-.072 1.26-.216s.715-.367 1.033-.67zM104.284 5.183c-.683 0-1.201.266-1.553.798-.351.532-.527 1.321-.527 2.366 0 1.04.176 1.827.527 2.362.352.535.87.802 1.553.802.689 0 1.209-.267 1.56-.802.352-.535.528-1.322.528-2.362 0-1.045-.176-1.834-.528-2.366-.351-.532-.871-.798-1.56-.798zm0-1.143c1.138 0 2.008.369 2.611 1.106.603.738.905 1.804.905 3.201 0 1.401-.3 2.469-.901 3.204s-1.472 1.103-2.615 1.103c-1.137 0-2.007-.368-2.607-1.103-.601-.735-.901-1.803-.901-3.204 0-1.397.3-2.463.901-3.201.6-.737 1.47-1.106 2.607-1.106zM113.754 5.073c.166-.352.378-.612.634-.78s.565-.253.926-.253c.66 0 1.125.255 1.396.766.271.51.406 1.471.406 2.882v4.753h-1.23V7.746c0-1.157-.065-1.876-.194-2.157-.13-.28-.365-.421-.707-.421-.391 0-.658.15-.802.451-.144.3-.216 1.009-.216 2.127v4.695h-1.231V7.746c0-1.171-.069-1.894-.208-2.168-.14-.273-.39-.41-.751-.41-.357 0-.604.15-.744.451-.139.3-.208 1.009-.208 2.127v4.695h-1.223V4.238h1.223v.703c.161-.293.362-.516.604-.67s.516-.231.824-.231c.371 0 .68.086.926.257.247.171.439.429.575.776zM124.345 1.506h1.392l-5.757 12.327h-1.399zM132.131 9.475c0 .605.111 1.062.333 1.37.222.307.551.461.985.461h1.575v1.135h-1.707c-.805 0-1.429-.257-1.871-.772-.442-.516-.663-1.247-.663-2.194v-7.42h-2.16V1.001h3.508zM141.037 8.318h-.447c-.786 0-1.378.138-1.776.413-.398.276-.597.688-.597 1.235 0 .493.149.876.447 1.15.298.273.71.41 1.238.41.742 0 1.326-.258 1.75-.773.425-.515.64-1.227.645-2.135v-.3zm2.615-.557v4.68h-1.355v-1.216c-.288.489-.651.849-1.088 1.081s-.968.348-1.593.348c-.835 0-1.501-.236-1.999-.707s-.747-1.102-.747-1.893c0-.914.306-1.607.919-2.081.613-.473 1.512-.71 2.699-.71h1.809v-.212c-.005-.655-.171-1.13-.498-1.425s-.85-.443-1.568-.443c-.459 0-.922.066-1.391.198s-.925.324-1.37.578V4.612a9.326 9.326 0 0 1 1.432-.429c.457-.095.9-.143 1.329-.143.679 0 1.259.1 1.74.301.481.2.87.5 1.168.901.186.244.318.545.396.904s.117.897.117 1.615zM151.21 9.804c-.224.572-.51 1.324-.857 2.256-.483 1.289-.808 2.076-.974 2.359a2.288 2.288 0 0 1-.842.857c-.337.19-.73.285-1.179.285h-1.084v-1.128h.798c.396 0 .706-.114.93-.344.225-.229.511-.823.857-1.78l-3.171-8.071h1.428l2.432 6.416 2.395-6.416h1.428zM161.86 1.045v11.396h-1.348V2.165h-2.19c-.483 0-.819.099-1.007.297s-.282.548-.282 1.051v.74h2.146v1.032h-2.146v7.156h-1.347V5.285h-1.473V4.238h1.473v-.571c0-.899.206-1.56.618-1.985.413-.425 1.056-.637 1.93-.637h3.626zM168.129 8.318h-.446c-.787 0-1.379.138-1.777.413-.398.276-.596.688-.596 1.235 0 .493.148.876.446 1.15.298.273.711.41 1.238.41.742 0 1.326-.258 1.751-.773.424-.515.639-1.227.644-2.135v-.3zm2.615-.557v4.68h-1.355v-1.216c-.288.489-.651.849-1.088 1.081s-.968.348-1.593.348c-.835 0-1.501-.236-1.999-.707s-.747-1.102-.747-1.893c0-.914.306-1.607.919-2.081.613-.473 1.512-.71 2.699-.71h1.809v-.212c-.005-.655-.171-1.13-.498-1.425s-.85-.443-1.567-.443c-.459 0-.923.066-1.392.198s-.925.324-1.37.578V4.612a9.326 9.326 0 0 1 1.432-.429c.457-.095.9-.143 1.33-.143.678 0 1.258.1 1.739.301.481.2.871.5 1.168.901.186.244.318.545.396.904s.117.897.117 1.615zM178.303 8.274c0-1.011-.165-1.779-.495-2.304-.329-.525-.809-.787-1.439-.787-.659 0-1.162.262-1.509.787-.346.525-.52 1.293-.52 2.304 0 1.01.175 1.781.524 2.311.349.529.856.794 1.52.794.62 0 1.095-.266 1.424-.798.33-.532.495-1.301.495-2.307zm1.347 3.64c0 1.23-.29 2.163-.871 2.798-.581.634-1.436.952-2.564.952-.371 0-.759-.034-1.164-.103a8.394 8.394 0 0 1-1.216-.3v-1.333a8.18 8.18 0 0 0 1.304.498c.39.107.749.161 1.076.161.728 0 1.258-.198 1.59-.593.332-.396.498-1.023.498-1.882v-.974c-.215.458-.508.8-.879 1.025s-.823.337-1.355.337c-.957 0-1.721-.383-2.293-1.15-.571-.767-.857-1.792-.857-3.076 0-1.289.286-2.317.857-3.084.572-.766 1.336-1.15 2.293-1.15.527 0 .974.105 1.34.315s.664.535.894.974V4.267h1.347zM188.176 4.524v1.318a5.103 5.103 0 0 0-1.165-.505 4.269 4.269 0 0 0-1.194-.169c-.61 0-1.065.099-1.366.297-.3.198-.45.499-.45.904 0 .367.112.64.337.821.224.18.784.356 1.677.527l.542.103c.669.127 1.176.38 1.52.761s.516.877.516 1.487c0 .811-.288 1.444-.864 1.901-.576.456-1.377.685-2.402.685-.406 0-.83-.043-1.275-.129a11.585 11.585 0 0 1-1.443-.384v-1.392c.503.259.984.453 1.443.583.459.129.894.194 1.304.194.596 0 1.057-.121 1.384-.363s.491-.58.491-1.014c0-.625-.598-1.057-1.795-1.297l-.058-.014-.506-.103c-.776-.151-1.342-.406-1.699-.765-.356-.359-.534-.849-.534-1.469 0-.786.266-1.393.798-1.82s1.291-.641 2.278-.641c.439 0 .862.041 1.267.121.405.081.803.202 1.194.363z"/></g></svg>